<?xml version="1.0" standalone="no"?><!DOCTYPE svg PUBLIC "-//W3C//DTD SVG 1.1//EN" "http://www.w3.org/Graphics/SVG/1.1/DTD/svg11.dtd"><svg t="1548077076441" class="icon" style="" viewBox="0 0 1024 1024" version="1.1" xmlns="http://www.w3.org/2000/svg" p-id="1968" xmlns:xlink="http://www.w3.org/1999/xlink" width="200" height="200"><defs><style type="text/css"></style></defs><path d="M194.9 819.6H85.6c-11.2 0-20.3-9.1-20.3-20.3V468.4c0-11.2 9.1-20.3 20.3-20.3h109.3c11.2 0 20.3 9.1 20.3 20.3v330.9c0 11.2-9.1 20.3-20.3 20.3zM959.3 169.3V279c0 11.1-9 20.1-20.1 20.1H607.9c-11.1 0-20.1-9-20.1-20.1V169.3c0-11.1 9-20.1 20.1-20.1h331.3c11.1 0 20.1 9 20.1 20.1zM959.3 468.8v109c0 11.3-9.2 20.5-20.5 20.5H608.3c-11.3 0-20.5-9.2-20.5-20.5v-109c0-11.3 9.2-20.5 20.5-20.5h330.6c11.3 0.1 20.4 9.2 20.4 20.5zM959.3 765.7v109.9c0 11-9 20-20 20H607.8c-11 0-20-9-20-20V765.7c0-11 9-20 20-20h331.5c11.1 0 20 9 20 20zM194.9 374H85.5c-11.2 0-20.3-9.1-20.3-20.3V244.3c0-11.2 9.1-20.3 20.3-20.3h109.4c11.2 0 20.3 9.1 20.3 20.3v109.4c0 11.2-9.1 20.3-20.3 20.3zM364.6 224.5h75v595.1h-75z" p-id="1969"></path><path d="M601.238 491.178v64h-354.1v-64zM554.818 191.818v64.2h-190.2v-64.2zM554.838 788.638v64h-190.2v-64z" p-id="1970"></path></svg>