<?xml version="1.0" standalone="no"?><!DOCTYPE svg PUBLIC "-//W3C//DTD SVG 1.1//EN" "http://www.w3.org/Graphics/SVG/1.1/DTD/svg11.dtd"><svg t="1548077490023" class="icon" style="" viewBox="0 0 1024 1024" version="1.1" xmlns="http://www.w3.org/2000/svg" p-id="5851" xmlns:xlink="http://www.w3.org/1999/xlink" width="200" height="200"><defs><style type="text/css"></style></defs><path d="M1000.399238 252.196571c18.236952 21.942857 25.551238 51.102476 21.894095 80.310858l-58.416762 387.023238c-7.314286 47.494095-51.102476 83.968-102.253714 83.968H306.712381c-51.151238 0-94.939429-43.78819-102.253714-98.54781L146.041905 281.35619 113.127619 102.497524c-3.657143-18.236952-18.236952-29.208381-32.865524-29.208381H36.571429A36.571429 36.571429 0 0 1 0 36.815238C0 18.529524 14.628571 0.24381 36.522667 0.24381h43.78819C135.070476 0.292571 178.95619 40.472381 186.270476 91.623619l32.865524 178.907429 62.025143 423.497142c0 14.628571 14.628571 32.865524 29.257143 32.865524h554.910476c14.628571 0 29.257143-10.971429 29.257143-21.942857l54.710857-383.317333c3.657143-10.971429 0-18.285714-3.608381-21.942857a27.843048 27.843048 0 0 0-18.285714-7.314286H328.557714c-21.894095 0-36.473905-14.57981-36.473904-36.473905 0-21.942857 14.628571-36.522667 36.522666-36.522666h598.796191c29.159619 0 54.710857 10.971429 72.996571 32.865523zM222.695619 949.540571a73.045333 73.045333 0 1 1 146.041905 0 73.045333 73.045333 0 0 1-146.041905 0z m580.510476 0a73.045333 73.045333 0 1 1 146.041905 0 73.045333 73.045333 0 0 1-146.041905 0z m24.527238-314.660571h-426.666666c-23.552 0-42.666667-16.091429-42.666667-35.84 0-19.797333 19.114667-35.84 42.666667-35.84h426.666666c23.600762 0 42.666667 16.091429 42.666667 35.84 0 19.797333-19.065905 35.84-42.666667 35.84zM733.866667 481.28h-341.333334c-18.822095 0-34.133333-16.091429-34.133333-35.84 0-19.797333 15.311238-35.84 34.133333-35.84h341.333334c18.870857 0 34.133333 16.091429 34.133333 35.84 0 19.797333-15.262476 35.84-34.133333 35.84z" p-id="5852"></path></svg>