<?xml version="1.0" standalone="no"?><!DOCTYPE svg PUBLIC "-//W3C//DTD SVG 1.1//EN" "http://www.w3.org/Graphics/SVG/1.1/DTD/svg11.dtd"><svg t="1548077893519" class="icon" style="" viewBox="0 0 1024 1024" version="1.1" xmlns="http://www.w3.org/2000/svg" p-id="7264" xmlns:xlink="http://www.w3.org/1999/xlink" width="200" height="200"><defs><style type="text/css"></style></defs><path d="M684.969515 0H203.418291c-77.273363 0-138.170915 55.268366-138.170915 127.424288V896.063968c0 72.155922 60.897551 127.424288 138.170915 127.424288h619.722139c77.273363 0 138.170915-55.268366 138.170914-127.424288V254.336832l-276.341829-254.336832z m33.263369 840.795602H303.208396c-16.375812 0-33.263368-16.375812-33.263369-33.263368s16.375812-33.263368 33.263369-33.263368h415.024488c16.375812 0 33.263368 16.375812 33.263368 33.263368s-16.887556 33.263368-33.263368 33.263368z m0-173.481259H303.208396c-16.375812 0-33.263368-16.375812-33.263369-33.263368 0-16.375812 16.375812-33.263368 33.263369-33.263369h415.024488c16.375812 0 33.263368 16.375812 33.263368 33.263369s-16.887556 33.263368-33.263368 33.263368z m0-173.993004H303.208396c-16.375812 0-33.263368-16.375812-33.263369-33.263368 0-16.375812 16.375812-33.263368 33.263369-33.263368h415.024488c16.375812 0 33.263368 16.375812 33.263368 33.263368s-16.887556 33.263368-33.263368 33.263368z m33.263368-238.984507c-38.892554 0-66.526737-27.634183-66.526737-66.526737V60.897551l204.697651 193.439281h-138.170914z" p-id="7265"></path></svg>